<svg width="261" height="301" viewBox="0 0 261 301" fill="none" xmlns="http://www.w3.org/2000/svg">
<mask id="path-1-inside-1_40_2" fill="white">
<path d="M33 258H236V272H33V258Z"/>
</mask>
<path d="M33 260H236V256H33V260Z" fill="black" mask="url(#path-1-inside-1_40_2)"/>
<mask id="path-3-inside-2_40_2" fill="white">
<path d="M91.0052 300.367L89 39.1075L103 39L105.005 300.259L91.0052 300.367Z"/>
</mask>
<path d="M93.0051 300.351L90.9999 39.0921L87.0001 39.1228L89.0053 300.382L93.0051 300.351Z" fill="black" mask="url(#path-3-inside-2_40_2)"/>
<mask id="path-5-inside-3_40_2" fill="white">
<path d="M33.0052 300.367L31.0082 40.1693L45.0077 40.0619L47.0048 300.259L33.0052 300.367Z"/>
</mask>
<path d="M35.0051 300.351L33.0081 40.154L29.0082 40.1847L31.0053 300.382L35.0051 300.351Z" fill="black" mask="url(#path-5-inside-3_40_2)"/>
<mask id="path-7-inside-4_40_2" fill="white">
<path d="M236.005 300.367L234 39.1075L248 39L250.005 300.259L236.005 300.367Z"/>
</mask>
<path d="M238.005 300.351L236 39.0921L232 39.1228L234.005 300.382L238.005 300.351Z" fill="black" mask="url(#path-7-inside-4_40_2)"/>
<mask id="path-9-inside-5_40_2" fill="white">
<path d="M33 174H236V188H33V174Z"/>
</mask>
<path d="M33 176H236V172H33V176Z" fill="black" mask="url(#path-9-inside-5_40_2)"/>
<mask id="path-11-inside-6_40_2" fill="white">
<path d="M33 244H236V258H33V244Z"/>
</mask>
<path d="M33 246H236V242H33V246Z" fill="black" mask="url(#path-11-inside-6_40_2)"/>
<mask id="path-13-inside-7_40_2" fill="white">
<path d="M33 160H236V174H33V160Z"/>
</mask>
<path d="M33 162H236V158H33V162Z" fill="black" mask="url(#path-13-inside-7_40_2)"/>
<mask id="path-15-inside-8_40_2" fill="white">
<path d="M33 230H236V244H33V230Z"/>
</mask>
<path d="M33 232H236V228H33V232Z" fill="black" mask="url(#path-15-inside-8_40_2)"/>
<mask id="path-17-inside-9_40_2" fill="white">
<path d="M31 40H234V54H31V40Z"/>
</mask>
<path d="M31 42H234V38H31V42Z" fill="black" mask="url(#path-17-inside-9_40_2)"/>
<mask id="path-19-inside-10_40_2" fill="white">
<path d="M33 216H236V230H33V216Z"/>
</mask>
<path d="M33 218H236V214H33V218Z" fill="black" mask="url(#path-19-inside-10_40_2)"/>
<mask id="path-21-inside-11_40_2" fill="white">
<path d="M33 132H236V146H33V132Z"/>
</mask>
<path d="M33 134H236V130H33V134Z" fill="black" mask="url(#path-21-inside-11_40_2)"/>
<mask id="path-23-inside-12_40_2" fill="white">
<path d="M33 146H236V160H33V146Z"/>
</mask>
<path d="M33 148H236V144H33V148Z" fill="black" mask="url(#path-23-inside-12_40_2)"/>
<mask id="path-25-inside-13_40_2" fill="white">
<path d="M33 202H236V216H33V202Z"/>
</mask>
<path d="M33 204H236V200H33V204Z" fill="black" mask="url(#path-25-inside-13_40_2)"/>
<mask id="path-27-inside-14_40_2" fill="white">
<path d="M33 118H236V132H33V118Z"/>
</mask>
<path d="M33 120H236V116H33V120Z" fill="black" mask="url(#path-27-inside-14_40_2)"/>
<mask id="path-29-inside-15_40_2" fill="white">
<path d="M33 272H236V286H33V272Z"/>
</mask>
<path d="M33 274H236V270H33V274Z" fill="black" mask="url(#path-29-inside-15_40_2)"/>
<mask id="path-31-inside-16_40_2" fill="white">
<path d="M33 188H236V202H33V188Z"/>
</mask>
<path d="M33 190H236V186H33V190Z" fill="black" mask="url(#path-31-inside-16_40_2)"/>
<mask id="path-33-inside-17_40_2" fill="white">
<path d="M33 286H236V300H33V286Z"/>
</mask>
<path d="M33 288H236V284H33V288Z" fill="black" mask="url(#path-33-inside-17_40_2)"/>
<path d="M33 300H236.5" stroke="black" stroke-width="2"/>
<path d="M100.46 53.961C100.029 53.847 99.5797 53.79 99.111 53.79C98.6423 53.79 98.2623 53.9103 97.971 54.151C97.6923 54.379 97.553 54.7083 97.553 55.139C97.553 55.557 97.6607 55.8863 97.876 56.127C98.0913 56.3677 98.5157 56.5767 99.149 56.754L100.84 57.248C101.752 57.514 102.474 57.932 103.006 58.502C103.551 59.0593 103.823 59.8827 103.823 60.972C103.823 62.264 103.354 63.2837 102.417 64.031C101.492 64.7783 100.34 65.152 98.959 65.152C98.199 65.152 97.4137 65.057 96.603 64.867C95.805 64.6643 95.14 64.3857 94.608 64.031C94.608 63.955 94.608 63.8093 94.608 63.594C94.608 63.3787 94.6523 63.0113 94.741 62.492C94.8297 61.9727 94.9563 61.5483 95.121 61.219H96.926C97.1287 61.6117 97.249 62.1373 97.287 62.796C97.7303 62.986 98.2433 63.081 98.826 63.081C99.4213 63.081 99.909 62.9417 100.289 62.663C100.669 62.3843 100.859 61.9853 100.859 61.466C100.859 61.2253 100.84 61.029 100.802 60.877C100.764 60.7123 100.644 60.5413 100.441 60.364C100.251 60.174 99.9723 60.022 99.605 59.908L97.648 59.338C95.6593 58.768 94.665 57.5013 94.665 55.538C94.665 54.3853 95.083 53.467 95.919 52.783C96.755 52.0863 97.8443 51.738 99.187 51.738C100.542 51.738 101.866 52.042 103.158 52.65C103.158 52.726 103.158 52.8717 103.158 53.087C103.158 53.3023 103.114 53.6697 103.025 54.189C102.936 54.7083 102.81 55.1327 102.645 55.462H100.84C100.625 55.158 100.498 54.6577 100.46 53.961ZM109.468 51.89L109.658 53.467C109.455 53.7077 109.107 53.923 108.613 54.113V62.796C109.119 62.9987 109.468 63.2077 109.658 63.423L109.468 65H105.022L104.832 63.423C104.996 63.2077 105.345 62.9987 105.877 62.796V54.113C105.357 53.923 105.009 53.7077 104.832 53.467L105.022 51.89H109.468ZM116.732 53.961C116.302 53.847 115.852 53.79 115.383 53.79C114.915 53.79 114.535 53.9103 114.243 54.151C113.965 54.379 113.825 54.7083 113.825 55.139C113.825 55.557 113.933 55.8863 114.148 56.127C114.364 56.3677 114.788 56.5767 115.421 56.754L117.112 57.248C118.024 57.514 118.746 57.932 119.278 58.502C119.823 59.0593 120.095 59.8827 120.095 60.972C120.095 62.264 119.627 63.2837 118.689 64.031C117.765 64.7783 116.612 65.152 115.231 65.152C114.471 65.152 113.686 65.057 112.875 64.867C112.077 64.6643 111.412 64.3857 110.88 64.031C110.88 63.955 110.88 63.8093 110.88 63.594C110.88 63.3787 110.925 63.0113 111.013 62.492C111.102 61.9727 111.229 61.5483 111.393 61.219H113.198C113.401 61.6117 113.521 62.1373 113.559 62.796C114.003 62.986 114.516 63.081 115.098 63.081C115.694 63.081 116.181 62.9417 116.561 62.663C116.941 62.3843 117.131 61.9853 117.131 61.466C117.131 61.2253 117.112 61.029 117.074 60.877C117.036 60.7123 116.916 60.5413 116.713 60.364C116.523 60.174 116.245 60.022 115.877 59.908L113.92 59.338C111.932 58.768 110.937 57.5013 110.937 55.538C110.937 54.3853 111.355 53.467 112.191 52.783C113.027 52.0863 114.117 51.738 115.459 51.738C116.815 51.738 118.138 52.042 119.43 52.65C119.43 52.726 119.43 52.8717 119.43 53.087C119.43 53.3023 119.386 53.6697 119.297 54.189C119.209 54.7083 119.082 55.1327 118.917 55.462H117.112C116.897 55.158 116.77 54.6577 116.732 53.961ZM131.288 51.909V54.626L130.091 54.778C129.926 54.6513 129.768 54.3853 129.616 53.98H127.336V62.796C127.843 62.9987 128.191 63.2077 128.381 63.423L128.191 65H123.745L123.555 63.423C123.72 63.2077 124.068 62.9987 124.6 62.796V53.98H122.32C122.168 54.3853 122.01 54.6513 121.845 54.778L120.648 54.626V51.909H131.288ZM141.057 65H132.241L132.051 63.423C132.216 63.2077 132.564 62.9987 133.096 62.796V54.113C132.577 53.923 132.229 53.7077 132.051 53.467L132.241 51.89H140.905V55.196L139.499 55.367C139.208 55.1137 138.974 54.645 138.796 53.961H135.832V57.229H138.473C138.625 56.849 138.784 56.583 138.948 56.431L140.145 56.564V59.946L138.948 60.098C138.784 59.9713 138.625 59.7053 138.473 59.3H135.832V62.929H138.948C139.113 62.2703 139.347 61.8017 139.651 61.523L141.057 61.694V65ZM152.573 55.728C152.573 56.5893 152.3 57.3113 151.756 57.894C151.224 58.4767 150.552 58.92 149.742 59.224C150.375 59.49 150.793 59.813 150.996 60.193L152.383 62.834C152.978 63.0367 153.383 63.271 153.599 63.537L153.409 65H150.198L148.013 60.345C147.81 59.8763 147.576 59.642 147.31 59.642H146.075V62.682C146.999 62.8847 147.576 63.1317 147.804 63.423L147.614 65H142.484L142.294 63.423C142.458 63.2077 142.807 62.9987 143.339 62.796V54.113C142.819 53.923 142.471 53.7077 142.294 53.467L142.484 51.89H147.329C149.102 51.9153 150.419 52.2003 151.281 52.745C152.142 53.2897 152.573 54.284 152.573 55.728ZM147.196 53.961H146.075V57.571H147.158C148.019 57.571 148.659 57.4443 149.077 57.191C149.507 56.925 149.723 56.4563 149.723 55.785C149.723 55.1137 149.507 54.645 149.077 54.379C148.646 54.1003 148.019 53.961 147.196 53.961ZM162.185 58.996H158.005V62.796C158.512 62.9987 158.86 63.2077 159.05 63.423L158.86 65H154.414L154.224 63.423C154.389 63.2077 154.737 62.9987 155.269 62.796V54.113C154.75 53.923 154.402 53.7077 154.224 53.467L154.414 51.89H158.86L159.05 53.467C158.848 53.7077 158.499 53.923 158.005 54.113V57.096H162.185V54.113C161.666 53.923 161.318 53.7077 161.14 53.467L161.33 51.89H165.776L165.966 53.467C165.764 53.7077 165.415 53.923 164.921 54.113V62.796C165.428 62.9987 165.776 63.2077 165.966 63.423L165.776 65H161.33L161.14 63.423C161.305 63.2077 161.653 62.9987 162.185 62.796V58.996ZM172.514 65.152C170.716 65.152 169.367 64.6327 168.467 63.594C167.581 62.5553 167.137 60.877 167.137 58.559C167.137 56.2283 167.625 54.512 168.6 53.41C169.588 52.2953 170.988 51.738 172.799 51.738C174.623 51.738 175.979 52.232 176.865 53.22C177.765 54.208 178.214 55.861 178.214 58.179C178.214 60.497 177.714 62.2387 176.713 63.404C175.713 64.5693 174.313 65.152 172.514 65.152ZM170.671 54.873C170.215 55.5317 169.987 56.678 169.987 58.312C169.987 59.946 170.228 61.1367 170.709 61.884C171.191 62.6313 171.849 63.005 172.685 63.005C173.534 63.005 174.193 62.6567 174.661 61.96C175.13 61.2507 175.364 60.079 175.364 58.445C175.364 55.405 174.452 53.885 172.628 53.885C171.78 53.885 171.127 54.2143 170.671 54.873ZM184.723 65.152C182.925 65.152 181.576 64.6327 180.676 63.594C179.79 62.5553 179.346 60.877 179.346 58.559C179.346 56.2283 179.834 54.512 180.809 53.41C181.797 52.2953 183.197 51.738 185.008 51.738C186.832 51.738 188.188 52.232 189.074 53.22C189.974 54.208 190.423 55.861 190.423 58.179C190.423 60.497 189.923 62.2387 188.922 63.404C187.922 64.5693 186.522 65.152 184.723 65.152ZM182.88 54.873C182.424 55.5317 182.196 56.678 182.196 58.312C182.196 59.946 182.437 61.1367 182.918 61.884C183.4 62.6313 184.058 63.005 184.894 63.005C185.743 63.005 186.402 62.6567 186.87 61.96C187.339 61.2507 187.573 60.079 187.573 58.445C187.573 55.405 186.661 53.885 184.837 53.885C183.989 53.885 183.336 54.2143 182.88 54.873ZM196.628 65H191.783L191.593 63.423C191.758 63.2077 192.106 62.9987 192.638 62.796V54.113C192.119 53.923 191.771 53.7077 191.593 53.467L191.783 51.89H196.02C198.06 51.89 199.675 52.46 200.865 53.6C202.069 54.74 202.67 56.4183 202.67 58.635C202.67 60.839 202.126 62.454 201.036 63.48C199.96 64.4933 198.49 65 196.628 65ZM195.374 62.929H196.742C197.692 62.929 198.44 62.644 198.984 62.074C199.542 61.4913 199.82 60.3703 199.82 58.711C199.82 55.5443 198.623 53.961 196.229 53.961H195.374V62.929ZM213.409 65.152C211.61 65.152 210.261 64.6327 209.362 63.594C208.475 62.5553 208.032 60.877 208.032 58.559C208.032 56.2283 208.52 54.512 209.495 53.41C210.483 52.2953 211.883 51.738 213.694 51.738C215.518 51.738 216.873 52.232 217.76 53.22C218.659 54.208 219.109 55.861 219.109 58.179C219.109 60.497 218.609 62.2387 217.608 63.404C216.607 64.5693 215.208 65.152 213.409 65.152ZM211.566 54.873C211.11 55.5317 210.882 56.678 210.882 58.312C210.882 59.946 211.123 61.1367 211.604 61.884C212.085 62.6313 212.744 63.005 213.58 63.005C214.429 63.005 215.087 62.6567 215.556 61.96C216.025 61.2507 216.259 60.079 216.259 58.445C216.259 55.405 215.347 53.885 213.523 53.885C212.674 53.885 212.022 54.2143 211.566 54.873ZM229.133 51.89V55.196L227.727 55.367C227.436 55.1137 227.201 54.645 227.024 53.961H224.06V57.419H226.701C226.853 57.039 227.011 56.773 227.176 56.621L228.373 56.754V60.136L227.176 60.288C227.011 60.1613 226.853 59.8953 226.701 59.49H224.06V62.644C224.909 62.834 225.523 63.0937 225.903 63.423L225.713 65H220.469L220.279 63.423C220.444 63.2077 220.792 62.9987 221.324 62.796V54.113C220.805 53.923 220.456 53.7077 220.279 53.467L220.469 51.89H229.133ZM104.792 66.909V69.626L103.595 69.778C103.43 69.6513 103.272 69.3853 103.12 68.98H100.84V77.796C101.347 77.9987 101.695 78.2077 101.885 78.423L101.695 80H97.249L97.059 78.423C97.2237 78.2077 97.572 77.9987 98.104 77.796V68.98H95.824C95.672 69.3853 95.5137 69.6513 95.349 69.778L94.152 69.626V66.909H104.792ZM115.834 70.728C115.834 71.5893 115.562 72.3113 115.017 72.894C114.485 73.4767 113.814 73.92 113.003 74.224C113.637 74.49 114.055 74.813 114.257 75.193L115.644 77.834C116.24 78.0367 116.645 78.271 116.86 78.537L116.67 80H113.459L111.274 75.345C111.072 74.8763 110.837 74.642 110.571 74.642H109.336V77.682C110.261 77.8847 110.837 78.1317 111.065 78.423L110.875 80H105.745L105.555 78.423C105.72 78.2077 106.068 77.9987 106.6 77.796V69.113C106.081 68.923 105.733 68.7077 105.555 68.467L105.745 66.89H110.59C112.364 66.9153 113.681 67.2003 114.542 67.745C115.404 68.2897 115.834 69.284 115.834 70.728ZM110.457 68.961H109.336V72.571H110.419C111.281 72.571 111.92 72.4443 112.338 72.191C112.769 71.925 112.984 71.4563 112.984 70.785C112.984 70.1137 112.769 69.645 112.338 69.379C111.908 69.1003 111.281 68.961 110.457 68.961ZM124.288 66.795L128.069 77.758C128.601 77.948 128.975 78.1697 129.19 78.423L129 80H124.554L124.364 78.423C124.516 78.2203 124.82 78.0303 125.276 77.853L124.763 76.257H120.963L120.488 77.796C120.931 77.9733 121.261 78.1823 121.476 78.423L121.286 80H116.954L116.764 78.423C116.992 78.1317 117.416 77.891 118.037 77.701L121.685 66.795H124.288ZM122.711 69.455C122.711 70.2277 122.553 71.127 122.236 72.153L121.495 74.509H124.212L123.49 72.191C123.199 71.3043 123.034 70.5 122.996 69.778L122.977 69.455H122.711ZM132.536 80.095L128.926 69.113C128.382 68.9103 128.027 68.695 127.862 68.467L128.052 66.89H132.498L132.688 68.467C132.511 68.7077 132.188 68.9103 131.719 69.075L133.334 74.699C133.6 75.573 133.765 76.3773 133.828 77.112L133.847 77.435H134.113C134.126 76.6623 134.284 75.763 134.588 74.737L136.279 69.094C135.798 68.9293 135.462 68.7203 135.272 68.467L135.462 66.89H139.794L139.984 68.467C139.756 68.7457 139.332 68.9863 138.711 69.189L135.139 80.095H132.536ZM149.444 80H140.628L140.438 78.423C140.603 78.2077 140.951 77.9987 141.483 77.796V69.113C140.964 68.923 140.615 68.7077 140.438 68.467L140.628 66.89H149.292V70.196L147.886 70.367C147.595 70.1137 147.36 69.645 147.183 68.961H144.219V72.229H146.86C147.012 71.849 147.17 71.583 147.335 71.431L148.532 71.564V74.946L147.335 75.098C147.17 74.9713 147.012 74.7053 146.86 74.3H144.219V77.929H147.335C147.5 77.2703 147.734 76.8017 148.038 76.523L149.444 76.694V80ZM159.572 80H150.87L150.68 78.423C150.845 78.2077 151.193 77.9987 151.725 77.796V69.113C151.206 68.923 150.858 68.7077 150.68 68.467L150.87 66.89H155.316L155.506 68.467C155.304 68.7077 154.955 68.923 154.461 69.113V77.929H157.463C157.628 77.2703 157.862 76.8017 158.166 76.523L159.572 76.694V80ZM169.109 80H160.407L160.217 78.423C160.382 78.2077 160.73 77.9987 161.262 77.796V69.113C160.743 68.923 160.395 68.7077 160.217 68.467L160.407 66.89H164.853L165.043 68.467C164.841 68.7077 164.492 68.923 163.998 69.113V77.929H167C167.165 77.2703 167.399 76.8017 167.703 76.523L169.109 76.694V80ZM174.39 66.89L174.58 68.467C174.378 68.7077 174.029 68.923 173.535 69.113V77.796C174.042 77.9987 174.39 78.2077 174.58 78.423L174.39 80H169.944L169.754 78.423C169.919 78.2077 170.267 77.9987 170.799 77.796V69.113C170.28 68.923 169.932 68.7077 169.754 68.467L169.944 66.89H174.39ZM178.862 72.837V77.834C179.331 78.0113 179.679 78.2457 179.907 78.537L179.717 80H175.993L175.803 78.537C176.031 78.2457 176.38 78.0113 176.848 77.834V69.056C176.329 68.866 175.968 68.6317 175.765 68.353L175.955 66.89H179.869L183.65 74.262C183.929 74.794 184.201 75.5033 184.467 76.39L184.6 76.846L184.809 76.77C184.632 75.668 184.543 74.7433 184.543 73.996V69.075C184.087 68.8977 183.739 68.657 183.498 68.353L183.688 66.89H187.412L187.602 68.353C187.362 68.657 187.013 68.8977 186.557 69.075V80H183.574L179.755 72.571C179.477 72.039 179.204 71.3233 178.938 70.424L178.805 69.987L178.596 70.063C178.774 71.165 178.862 72.0897 178.862 72.837ZM194.172 68.885C193.311 68.885 192.639 69.2143 192.158 69.873C191.689 70.5317 191.455 71.678 191.455 73.312C191.455 76.4407 192.316 78.005 194.039 78.005C194.723 78.005 195.331 77.8973 195.863 77.682V75.535C195.28 75.345 194.881 75.1107 194.666 74.832L194.856 73.331H199.302L199.492 74.832C199.327 75.0347 199.03 75.231 198.599 75.421V78.936C197.991 79.3793 197.32 79.696 196.585 79.886C195.863 80.0633 194.957 80.152 193.868 80.152C192.057 80.152 190.727 79.639 189.878 78.613C189.029 77.5743 188.605 75.896 188.605 73.578C188.605 71.2473 189.105 69.5247 190.106 68.41C191.119 67.2953 192.5 66.738 194.248 66.738C196.009 66.738 197.446 67.137 198.561 67.935C198.561 68.011 198.561 68.1567 198.561 68.372C198.561 68.5873 198.517 68.9547 198.428 69.474C198.339 69.9933 198.213 70.4177 198.048 70.747H196.3C196.11 70.3923 195.983 69.8667 195.92 69.17C195.375 68.98 194.793 68.885 194.172 68.885ZM103.462 81.89V85.196L102.056 85.367C101.765 85.1137 101.53 84.645 101.353 83.961H98.389V87.419H101.03C101.182 87.039 101.34 86.773 101.505 86.621L102.702 86.754V90.136L101.505 90.288C101.34 90.1613 101.182 89.8953 101.03 89.49H98.389V92.644C99.2377 92.834 99.852 93.0937 100.232 93.423L100.042 95H94.798L94.608 93.423C94.7727 93.2077 95.121 92.9987 95.653 92.796V84.113C95.1337 83.923 94.7853 83.7077 94.608 83.467L94.798 81.89H103.462ZM113.559 95H104.743L104.553 93.423C104.718 93.2077 105.066 92.9987 105.598 92.796V84.113C105.079 83.923 104.731 83.7077 104.553 83.467L104.743 81.89H113.407V85.196L112.001 85.367C111.71 85.1137 111.476 84.645 111.298 83.961H108.334V87.229H110.975C111.127 86.849 111.286 86.583 111.45 86.431L112.647 86.564V89.946L111.45 90.098C111.286 89.9713 111.127 89.7053 110.975 89.3H108.334V92.929H111.45C111.615 92.2703 111.849 91.8017 112.153 91.523L113.559 91.694V95ZM127.127 87.837C127.127 87.3303 127.171 86.545 127.26 85.481L127.298 85.025L127.108 85.006C126.816 86.0827 126.563 86.9377 126.348 87.571L123.821 95H121.294L118.634 87.571C118.393 87.001 118.178 86.2917 117.988 85.443L117.874 85.006L117.684 85.025C117.798 86.1523 117.855 87.0897 117.855 87.837V92.834C118.323 93.0113 118.672 93.2457 118.9 93.537L118.71 95H114.986L114.796 93.537C115.024 93.2457 115.372 93.0113 115.841 92.834V84.056C115.321 83.866 114.96 83.6317 114.758 83.353L114.948 81.89H119.28L122.054 89.547C122.408 90.383 122.636 91.1493 122.738 91.846L122.795 92.169H123.061C123.111 91.3963 123.339 90.5223 123.745 89.547L126.386 81.89H130.642L130.832 83.353C130.629 83.6317 130.268 83.866 129.749 84.056V92.758C130.243 92.948 130.591 93.1697 130.794 93.423L130.604 95H126.272L126.082 93.442C126.284 93.1887 126.633 92.967 127.127 92.777V87.837ZM136.669 81.89L136.859 83.467C136.656 83.7077 136.308 83.923 135.814 84.113V92.796C136.32 92.9987 136.669 93.2077 136.859 93.423L136.669 95H132.223L132.033 93.423C132.197 93.2077 132.546 92.9987 133.078 92.796V84.113C132.558 83.923 132.21 83.7077 132.033 83.467L132.223 81.89H136.669ZM141.141 87.837V92.834C141.609 93.0113 141.958 93.2457 142.186 93.537L141.996 95H138.272L138.082 93.537C138.31 93.2457 138.658 93.0113 139.127 92.834V84.056C138.607 83.866 138.246 83.6317 138.044 83.353L138.234 81.89H142.148L145.929 89.262C146.207 89.794 146.48 90.5033 146.746 91.39L146.879 91.846L147.088 91.77C146.91 90.668 146.822 89.7433 146.822 88.996V84.075C146.366 83.8977 146.017 83.657 145.777 83.353L145.967 81.89H149.691L149.881 83.353C149.64 83.657 149.292 83.8977 148.836 84.075V95H145.853L142.034 87.571C141.755 87.039 141.483 86.3233 141.217 85.424L141.084 84.987L140.875 85.063C141.052 86.165 141.141 87.0897 141.141 87.837ZM155.557 81.89L155.747 83.467C155.545 83.7077 155.196 83.923 154.702 84.113V92.796C155.209 92.9987 155.557 93.2077 155.747 93.423L155.557 95H151.111L150.921 93.423C151.086 93.2077 151.434 92.9987 151.966 92.796V84.113C151.447 83.923 151.099 83.7077 150.921 83.467L151.111 81.89H155.557ZM162.822 83.961C162.392 83.847 161.942 83.79 161.473 83.79C161.005 83.79 160.625 83.9103 160.333 84.151C160.055 84.379 159.915 84.7083 159.915 85.139C159.915 85.557 160.023 85.8863 160.238 86.127C160.454 86.3677 160.878 86.5767 161.511 86.754L163.202 87.248C164.114 87.514 164.836 87.932 165.368 88.502C165.913 89.0593 166.185 89.8827 166.185 90.972C166.185 92.264 165.717 93.2837 164.779 94.031C163.855 94.7783 162.702 95.152 161.321 95.152C160.561 95.152 159.776 95.057 158.965 94.867C158.167 94.6643 157.502 94.3857 156.97 94.031C156.97 93.955 156.97 93.8093 156.97 93.594C156.97 93.3787 157.015 93.0113 157.103 92.492C157.192 91.9727 157.319 91.5483 157.483 91.219H159.288C159.491 91.6117 159.611 92.1373 159.649 92.796C160.093 92.986 160.606 93.081 161.188 93.081C161.784 93.081 162.271 92.9417 162.651 92.663C163.031 92.3843 163.221 91.9853 163.221 91.466C163.221 91.2253 163.202 91.029 163.164 90.877C163.126 90.7123 163.006 90.5413 162.803 90.364C162.613 90.174 162.335 90.022 161.967 89.908L160.01 89.338C158.022 88.768 157.027 87.5013 157.027 85.538C157.027 84.3853 157.445 83.467 158.281 82.783C159.117 82.0863 160.207 81.738 161.549 81.738C162.905 81.738 164.228 82.042 165.52 82.65C165.52 82.726 165.52 82.8717 165.52 83.087C165.52 83.3023 165.476 83.6697 165.387 84.189C165.299 84.7083 165.172 85.1327 165.007 85.462H163.202C162.987 85.158 162.86 84.6577 162.822 83.961ZM177.378 81.909V84.626L176.181 84.778C176.016 84.6513 175.858 84.3853 175.706 83.98H173.426V92.796C173.933 92.9987 174.281 93.2077 174.471 93.423L174.281 95H169.835L169.645 93.423C169.81 93.2077 170.158 92.9987 170.69 92.796V83.98H168.41C168.258 84.3853 168.1 84.6513 167.935 84.778L166.738 84.626V81.909H177.378ZM103.5 110H94.798L94.608 108.423C94.7727 108.208 95.121 107.999 95.653 107.796V99.113C95.1337 98.923 94.7853 98.7077 94.608 98.467L94.798 96.89H99.244L99.434 98.467C99.2313 98.7077 98.883 98.923 98.389 99.113V107.929H101.391C101.556 107.27 101.79 106.802 102.094 106.523L103.5 106.694V110ZM108.781 96.89L108.971 98.467C108.768 98.7077 108.42 98.923 107.926 99.113V107.796C108.433 107.999 108.781 108.208 108.971 108.423L108.781 110H104.335L104.145 108.423C104.31 108.208 104.658 107.999 105.19 107.796V99.113C104.671 98.923 104.322 98.7077 104.145 98.467L104.335 96.89H108.781ZM120.378 96.909V99.626L119.181 99.778C119.016 99.6513 118.858 99.3853 118.706 98.98H116.426V107.796C116.933 107.999 117.281 108.208 117.471 108.423L117.281 110H112.835L112.645 108.423C112.81 108.208 113.158 107.999 113.69 107.796V98.98H111.41C111.258 99.3853 111.1 99.6513 110.935 99.778L109.738 99.626V96.909H120.378ZM130.147 110H121.331L121.141 108.423C121.306 108.208 121.654 107.999 122.186 107.796V99.113C121.667 98.923 121.319 98.7077 121.141 98.467L121.331 96.89H129.995V100.196L128.589 100.367C128.298 100.114 128.064 99.645 127.886 98.961H124.922V102.229H127.563C127.715 101.849 127.874 101.583 128.038 101.431L129.235 101.564V104.946L128.038 105.098C127.874 104.971 127.715 104.705 127.563 104.3H124.922V107.929H128.038C128.203 107.27 128.437 106.802 128.741 106.523L130.147 106.694V110ZM141.662 100.728C141.662 101.589 141.39 102.311 140.845 102.894C140.313 103.477 139.642 103.92 138.831 104.224C139.465 104.49 139.883 104.813 140.085 105.193L141.472 107.834C142.068 108.037 142.473 108.271 142.688 108.537L142.498 110H139.287L137.102 105.345C136.9 104.876 136.665 104.642 136.399 104.642H135.164V107.682C136.089 107.885 136.665 108.132 136.893 108.423L136.703 110H131.573L131.383 108.423C131.548 108.208 131.896 107.999 132.428 107.796V99.113C131.909 98.923 131.561 98.7077 131.383 98.467L131.573 96.89H136.418C138.192 96.9153 139.509 97.2003 140.37 97.745C141.232 98.2897 141.662 99.284 141.662 100.728ZM136.285 98.961H135.164V102.571H136.247C137.109 102.571 137.748 102.444 138.166 102.191C138.597 101.925 138.812 101.456 138.812 100.785C138.812 100.114 138.597 99.645 138.166 99.379C137.736 99.1003 137.109 98.961 136.285 98.961ZM150.116 96.795L153.897 107.758C154.429 107.948 154.803 108.17 155.018 108.423L154.828 110H150.382L150.192 108.423C150.344 108.22 150.648 108.03 151.104 107.853L150.591 106.257H146.791L146.316 107.796C146.759 107.973 147.089 108.182 147.304 108.423L147.114 110H142.782L142.592 108.423C142.82 108.132 143.244 107.891 143.865 107.701L147.513 96.795H150.116ZM148.539 99.455C148.539 100.228 148.381 101.127 148.064 102.153L147.323 104.509H150.04L149.318 102.191C149.027 101.304 148.862 100.5 148.824 99.778L148.805 99.455H148.539ZM164.464 96.909V99.626L163.267 99.778C163.102 99.6513 162.944 99.3853 162.792 98.98H160.512V107.796C161.019 107.999 161.367 108.208 161.557 108.423L161.367 110H156.921L156.731 108.423C156.896 108.208 157.244 107.999 157.776 107.796V98.98H155.496C155.344 99.3853 155.186 99.6513 155.021 99.778L153.824 99.626V96.909H164.464ZM175.316 105.25C175.316 106.909 174.936 108.144 174.176 108.955C173.429 109.753 172.213 110.152 170.528 110.152C168.843 110.152 167.659 109.759 166.975 108.974C166.304 108.176 165.968 106.935 165.968 105.25V99.113C165.487 98.9357 165.138 98.7203 164.923 98.467L165.113 96.89H169.559L169.749 98.467C169.546 98.7077 169.198 98.923 168.704 99.113V105.326C168.704 106.238 168.85 106.916 169.141 107.359C169.445 107.79 169.983 108.005 170.756 108.005C171.529 108.005 172.073 107.783 172.39 107.34C172.707 106.884 172.865 106.213 172.865 105.326V99.113C172.346 98.923 171.997 98.7077 171.82 98.467L172.01 96.89H176.171L176.361 98.467C176.158 98.7077 175.81 98.923 175.316 99.113V105.25ZM187.548 100.728C187.548 101.589 187.276 102.311 186.731 102.894C186.199 103.477 185.528 103.92 184.717 104.224C185.35 104.49 185.768 104.813 185.971 105.193L187.358 107.834C187.953 108.037 188.359 108.271 188.574 108.537L188.384 110H185.173L182.988 105.345C182.785 104.876 182.551 104.642 182.285 104.642H181.05V107.682C181.975 107.885 182.551 108.132 182.779 108.423L182.589 110H177.459L177.269 108.423C177.434 108.208 177.782 107.999 178.314 107.796V99.113C177.795 98.923 177.446 98.7077 177.269 98.467L177.459 96.89H182.304C184.077 96.9153 185.395 97.2003 186.256 97.745C187.117 98.2897 187.548 99.284 187.548 100.728ZM182.171 98.961H181.05V102.571H182.133C182.994 102.571 183.634 102.444 184.052 102.191C184.483 101.925 184.698 101.456 184.698 100.785C184.698 100.114 184.483 99.645 184.052 99.379C183.621 99.1003 182.994 98.961 182.171 98.961ZM198.206 110H189.39L189.2 108.423C189.364 108.208 189.713 107.999 190.245 107.796V99.113C189.725 98.923 189.377 98.7077 189.2 98.467L189.39 96.89H198.054V100.196L196.648 100.367C196.356 100.114 196.122 99.645 195.945 98.961H192.981V102.229H195.622C195.774 101.849 195.932 101.583 196.097 101.431L197.294 101.564V104.946L196.097 105.098C195.932 104.971 195.774 104.705 195.622 104.3H192.981V107.929H196.097C196.261 107.27 196.496 106.802 196.8 106.523L198.206 106.694V110Z" fill="black"/>
<path d="M46.455 131H42.63L42.48 129.755C42.61 129.585 42.885 129.42 43.305 129.26V122.405C42.895 122.255 42.62 122.085 42.48 121.895L42.63 120.65H45.975C47.585 120.65 48.86 121.1 49.8 122C50.75 122.9 51.225 124.225 51.225 125.975C51.225 127.715 50.795 128.99 49.935 129.8C49.085 130.6 47.925 131 46.455 131ZM45.465 129.365H46.545C47.295 129.365 47.885 129.14 48.315 128.69C48.755 128.23 48.975 127.345 48.975 126.035C48.975 123.535 48.03 122.285 46.14 122.285H45.465V129.365ZM57.1518 120.575L60.1368 129.23C60.5568 129.38 60.8518 129.555 61.0218 129.755L60.8718 131H57.3618L57.2118 129.755C57.3318 129.595 57.5718 129.445 57.9318 129.305L57.5268 128.045H54.5268L54.1518 129.26C54.5018 129.4 54.7618 129.565 54.9318 129.755L54.7818 131H51.3618L51.2118 129.755C51.3918 129.525 51.7268 129.335 52.2168 129.185L55.0968 120.575H57.1518ZM55.9068 122.675C55.9068 123.285 55.7818 123.995 55.5318 124.805L54.9468 126.665H57.0918L56.5218 124.835C56.2918 124.135 56.1618 123.5 56.1318 122.93L56.1168 122.675H55.9068ZM68.479 120.665V122.81L67.534 122.93C67.404 122.83 67.279 122.62 67.159 122.3H65.359V129.26C65.759 129.42 66.034 129.585 66.184 129.755L66.034 131H62.524L62.374 129.755C62.504 129.585 62.779 129.42 63.199 129.26V122.3H61.399C61.279 122.62 61.154 122.83 61.024 122.93L60.079 122.81V120.665H68.479ZM76.1916 131H69.2316L69.0816 129.755C69.2116 129.585 69.4866 129.42 69.9066 129.26V122.405C69.4966 122.255 69.2216 122.085 69.0816 121.895L69.2316 120.65H76.0716V123.26L74.9616 123.395C74.7316 123.195 74.5466 122.825 74.4066 122.285H72.0666V124.865H74.1516C74.2716 124.565 74.3966 124.355 74.5266 124.235L75.4716 124.34V127.01L74.5266 127.13C74.3966 127.03 74.2716 126.82 74.1516 126.5H72.0666V129.365H74.5266C74.6566 128.845 74.8416 128.475 75.0816 128.255L76.1916 128.39V131Z" fill="black"/>
<path d="M119.895 125.345V129.29C120.265 129.43 120.54 129.615 120.72 129.845L120.57 131H117.63L117.48 129.845C117.66 129.615 117.935 129.43 118.305 129.29V122.36C117.895 122.21 117.61 122.025 117.45 121.805L117.6 120.65H120.69L123.675 126.47C123.895 126.89 124.11 127.45 124.32 128.15L124.425 128.51L124.59 128.45C124.45 127.58 124.38 126.85 124.38 126.26V122.375C124.02 122.235 123.745 122.045 123.555 121.805L123.705 120.65H126.645L126.795 121.805C126.605 122.045 126.33 122.235 125.97 122.375V131H123.615L120.6 125.135C120.38 124.715 120.165 124.15 119.955 123.44L119.85 123.095L119.685 123.155C119.825 124.025 119.895 124.755 119.895 125.345ZM132.884 120.575L135.869 129.23C136.289 129.38 136.584 129.555 136.754 129.755L136.604 131H133.094L132.944 129.755C133.064 129.595 133.304 129.445 133.664 129.305L133.259 128.045H130.259L129.884 129.26C130.234 129.4 130.494 129.565 130.664 129.755L130.514 131H127.094L126.944 129.755C127.124 129.525 127.459 129.335 127.949 129.185L130.829 120.575H132.884ZM131.639 122.675C131.639 123.285 131.514 123.995 131.264 124.805L130.679 126.665H132.824L132.254 124.835C132.024 124.135 131.894 123.5 131.864 122.93L131.849 122.675H131.639ZM146.917 125.345C146.917 124.945 146.952 124.325 147.022 123.485L147.052 123.125L146.902 123.11C146.672 123.96 146.472 124.635 146.302 125.135L144.307 131H142.312L140.212 125.135C140.022 124.685 139.852 124.125 139.702 123.455L139.612 123.11L139.462 123.125C139.552 124.015 139.597 124.755 139.597 125.345V129.29C139.967 129.43 140.242 129.615 140.422 129.845L140.272 131H137.332L137.182 129.845C137.362 129.615 137.637 129.43 138.007 129.29V122.36C137.597 122.21 137.312 122.025 137.152 121.805L137.302 120.65H140.722L142.912 126.695C143.192 127.355 143.372 127.96 143.452 128.51L143.497 128.765H143.707C143.747 128.155 143.927 127.465 144.247 126.695L146.332 120.65H149.692L149.842 121.805C149.682 122.025 149.397 122.21 148.987 122.36V129.23C149.377 129.38 149.652 129.555 149.812 129.755L149.662 131H146.242L146.092 129.77C146.252 129.57 146.527 129.395 146.917 129.245V125.345ZM157.901 131H150.941L150.791 129.755C150.921 129.585 151.196 129.42 151.616 129.26V122.405C151.206 122.255 150.931 122.085 150.791 121.895L150.941 120.65H157.781V123.26L156.671 123.395C156.441 123.195 156.256 122.825 156.116 122.285H153.776V124.865H155.861C155.981 124.565 156.106 124.355 156.236 124.235L157.181 124.34V127.01L156.236 127.13C156.106 127.03 155.981 126.82 155.861 126.5H153.776V129.365H156.236C156.366 128.845 156.551 128.475 156.791 128.255L157.901 128.39V131Z" fill="black"/>
<path d="M81 75.2353C81 81.1783 79.5609 88.4372 76.2477 94.1739C72.9516 99.8809 67.8643 104 60.5 104C53.4712 104 48.3776 99.8916 44.9915 94.165C41.5947 88.4204 40 81.161 40 75.2353C40 72.3296 40.5749 70.1015 41.5578 68.3812C42.5375 66.6666 43.9593 65.3919 45.7616 64.4469C49.4176 62.53 54.5735 62 60.5 62C66.4265 62 71.5824 62.53 75.2384 64.4469C77.0407 65.3919 78.4625 66.6666 79.4422 68.3812C80.4251 70.1015 81 72.3296 81 75.2353Z" fill="white" stroke="black" stroke-width="2"/>
<circle cx="72.5" cy="24.5" r="2" fill="white" stroke="black"/>
<path d="M84.5 20C84.5 21.8793 82.7661 23.5 80.5 23.5C78.2339 23.5 76.5 21.8793 76.5 20C76.5 18.1207 78.2339 16.5 80.5 16.5C82.7661 16.5 84.5 18.1207 84.5 20Z" fill="white" stroke="black"/>
<path d="M67.5 20.5C67.5 22.6609 65.5361 24.5 63 24.5C60.4639 24.5 58.5 22.6609 58.5 20.5C58.5 18.3391 60.4639 16.5 63 16.5C65.5361 16.5 67.5 18.3391 67.5 20.5Z" fill="white" stroke="black"/>
<path d="M12.3669 21.5103C12.4035 20.9377 12.4323 20.4165 12.4536 19.966C12.5632 20.2187 12.6809 20.4943 12.8059 20.7872C13.007 21.2582 13.2272 21.774 13.464 22.3117C14.0143 23.5615 14.6444 24.9055 15.283 25.9419C15.6014 26.4586 15.9353 26.9211 16.2774 27.2603C16.605 27.5851 17.0204 27.8773 17.5 27.8773C19.433 27.8773 21 29.4443 21 31.3773C21 33.307 19.4383 34.872 17.5098 34.8773C17.5016 34.8745 17.4572 34.8591 17.3724 34.788C17.258 34.6922 17.1164 34.5335 16.9517 34.3013C16.6237 33.8389 16.2557 33.1592 15.8696 32.3203C15.0999 30.6479 14.2933 28.4202 13.6173 26.2288C13.0923 24.5272 12.6506 22.8623 12.3669 21.5103ZM11.2018 20.7432C11.2467 21.0064 11.2998 21.2866 11.3602 21.581C11.2459 23.3351 11.0589 25.5603 10.7895 27.7048C10.5427 29.6697 10.2296 31.5431 9.84687 32.9167C9.65438 33.6074 9.45245 34.141 9.24886 34.4917C9.03722 34.8562 8.91259 34.8762 8.91276 34.8773C8.91277 34.8773 8.91331 34.8773 8.91441 34.8773C7.84371 34.8773 6.95423 34.7124 6.34707 34.3407C5.78056 33.9938 5.41442 33.4413 5.41442 32.5C5.41442 31.5044 5.75271 30.584 6.12177 29.7486C6.1886 29.5973 6.25926 29.4428 6.32902 29.2903C6.44282 29.0414 6.55423 28.7979 6.64267 28.5821C6.73083 28.3671 6.81383 28.1404 6.86436 27.9146C7.15842 27.8035 7.41992 27.5974 7.64132 27.3771C7.98534 27.0349 8.32237 26.5679 8.64463 26.0457C9.29102 24.9982 9.93171 23.6393 10.4927 22.3743C10.7317 21.8354 10.9544 21.3178 11.1583 20.8442C11.1729 20.8103 11.1874 20.7767 11.2018 20.7432ZM44.4144 4C44.4144 5.933 42.8474 7.5 40.9144 7.5C38.9814 7.5 37.4144 5.933 37.4144 4C37.4144 2.067 38.9814 0.5 40.9144 0.5C42.8474 0.5 44.4144 2.067 44.4144 4ZM22 77.2546C22 79.1876 20.433 80.7546 18.5 80.7546C17.5641 80.7546 16.714 80.3873 16.086 79.7889C16.0381 78.7516 15.639 77.8059 15.0048 77.0681C15.1018 75.1703 16.6657 73.5 18.5 73.5C20.3942 73.5 22 75.2811 22 77.2546ZM14.0049 77.4657C14.0528 78.503 14.4519 79.4486 15.086 80.1864C14.9891 82.0327 13.4613 83.5 11.5909 83.5C9.65788 83.5 8.09087 81.933 8.09087 80C8.09087 79.5496 8.17594 79.1192 8.33087 78.7237C9.84626 78.6136 11.1535 77.7531 11.8826 76.512C12.7028 76.5797 13.4428 76.9302 14.0049 77.4657ZM10.5168 76.6679C10.1218 77.0766 9.62805 77.3894 9.07403 77.5678C9.4691 77.1591 9.96283 76.8463 10.5168 76.6679ZM11.26 75.512C9.74462 75.6221 8.4374 76.4826 7.70823 77.7237C5.91175 77.5754 4.5 76.0704 4.5 74.2357C4.5 72.3535 5.98568 70.8184 7.84829 70.7389C8.45616 72.1885 9.80107 73.2525 11.4142 73.4622C11.4704 73.711 11.5 73.9699 11.5 74.2357C11.5 74.6861 11.4149 75.1165 11.26 75.512ZM10.9406 72.3368C10.1589 72.0889 9.49614 71.5738 9.0594 70.8989C9.84108 71.1468 10.5039 71.6619 10.9406 72.3368ZM12.1517 72.4968C11.5438 71.0472 10.1989 69.9832 8.58576 69.7735C8.52963 69.5246 8.5 69.2658 8.5 69C8.5 67.067 10.067 65.5 12 65.5C13.933 65.5 15.5 67.067 15.5 69C15.5 70.8822 14.0143 72.4173 12.1517 72.4968Z" fill="white" stroke="black"/>
<circle cx="1.5" cy="1.5" r="1.5" transform="matrix(1 0 0 -1 45 64)" fill="black"/>
<circle cx="2.5" cy="2.5" r="2" transform="matrix(1 0 0 -1 47 65)" fill="white" stroke="black"/>
<circle cx="2.5" cy="2.5" r="2" transform="matrix(1 0 0 -1 44 62)" fill="white" stroke="black"/>
<circle cx="2.5" cy="2.5" r="2" transform="matrix(1 0 0 -1 41 65)" fill="white" stroke="black"/>
<circle cx="2.5" cy="2.5" r="2" transform="matrix(1 0 0 -1 44 68)" fill="white" stroke="black"/>
<path d="M5.92997 109.227C9.78942 106.838 14.1729 111.875 15.7548 115.188C14.4012 115.544 5.60762 113.634 5.92997 109.227Z" stroke="black"/>
<path d="M48.6504 64.8648C52.1062 63.9294 53.9468 68.7899 54.209 71.6863C53.1265 71.6464 47.23 68.1591 48.6504 64.8648Z" stroke="black"/>
<path d="M19 56C19 58.4853 16.9853 60.5 14.5 60.5C12.0147 60.5 10 58.4853 10 56C10 53.5147 12.0147 51.5 14.5 51.5C16.9853 51.5 19 53.5147 19 56Z" fill="black"/>
</svg>
